# xmcd CD database file
#
# Track frame offsets:
#	150
#	23934
#	51192
#
# Disc length: 1030 seconds
#
# Revision: 0
# Processed by: cddbd v1.5.1PL0 Copyright (c) Steve Scherf et al.
# Submitted via: CDex 1.51
#
DISCID=1f040403
DTITLE=SPiRAL MONSTER - Nowhere but here
DYEAR=2004
DGENRE=Punk Rock
TTITLE0=Nowhere but here
TTITLE1=Drawning
TTITLE2=Flow
EXTD=YEAR: 2004
EXTT0=
EXTT1=
EXTT2=
PLAYORDER=
